<svg width="50" height="50" viewBox="0 0 50 50" fill="none" xmlns="http://www.w3.org/2000/svg">
<path d="M22.8097 29.0858C22.4196 29.0858 22.0296 28.9372 21.7324 28.6393C21.1374 28.0443 21.1374 27.0798 21.7324 26.4848L31.6069 16.6103C32.2011 16.0153 33.1672 16.0153 33.7614 16.6103C34.3564 17.2053 34.3564 18.1698 33.7614 18.7649L23.887 28.6393C23.5899 28.9372 23.1998 29.0858 22.8097 29.0858Z" fill="#FFE492"/>
<path d="M22.8092 29.086C22.4191 29.086 22.0298 28.9374 21.7319 28.6395L16.7539 23.6623C16.1589 23.0673 16.1589 22.1028 16.7539 21.5078C17.3482 20.9128 18.3135 20.9128 18.9085 21.5078L23.8864 26.485C24.4815 27.08 24.4815 28.0445 23.8864 28.6395C23.5893 28.9374 23.1992 29.086 22.8092 29.086Z" fill="#FFE492"/>
<path d="M24.631 44.9522C24.4726 44.9522 24.3118 44.9271 24.1534 44.8753C14.4138 41.6625 7.87017 32.6131 7.87017 22.3562C7.87017 21.5151 8.5528 20.8325 9.39389 20.8325C10.235 20.8325 10.9176 21.5151 10.9176 22.3562C10.9176 31.2944 16.6201 39.1811 25.108 41.981C25.9072 42.2446 26.3414 43.1062 26.0778 43.9054C25.8668 44.5461 25.271 44.9522 24.631 44.9522Z" fill="#FFE492"/>
<path d="M9.39389 23.8802C8.5528 23.8802 7.87017 23.1976 7.87017 22.3565V11.5769C7.87017 10.7358 8.5528 10.0532 9.39389 10.0532C10.235 10.0532 10.9176 10.7358 10.9176 11.5769V22.3565C10.9176 23.1983 10.235 23.8802 9.39389 23.8802Z" fill="#FFE492"/>
<path d="M9.39453 13.1009C8.64639 13.1009 7.99348 12.5494 7.88682 11.7867C7.77101 10.9533 8.35231 10.1838 9.18655 10.068C14.3337 9.35259 19.3017 7.8144 23.9537 5.49606C24.7071 5.12123 25.6221 5.42673 25.997 6.18021C26.3726 6.93369 26.0655 7.84792 25.3128 8.22352C20.3645 10.6889 15.0803 12.3246 9.60557 13.0865C9.53472 13.0964 9.46386 13.1009 9.39453 13.1009Z" fill="#FFE492"/>
<path d="M24.6325 44.9524C23.9933 44.9524 23.3967 44.5464 23.1857 43.9057C22.9221 43.1065 23.3563 42.2448 24.1555 41.9812C32.6434 39.1821 38.3459 31.2954 38.3459 22.3565C38.3459 21.5154 39.0285 20.8328 39.8696 20.8328C40.7107 20.8328 41.3933 21.5154 41.3933 22.3565C41.3933 32.6126 34.8497 41.6627 25.1094 44.8755C24.9509 44.9281 24.7909 44.9524 24.6325 44.9524Z" fill="#FFE492"/>
<path d="M39.8705 23.8802C39.0294 23.8802 38.3467 23.1976 38.3467 22.3565V11.5769C38.3467 10.7358 39.0294 10.0532 39.8705 10.0532C40.7115 10.0532 41.3942 10.7358 41.3942 11.5769V22.3565C41.3942 23.1983 40.7115 23.8802 39.8705 23.8802Z" fill="#FFE492"/>
<path d="M39.8719 13.1009C39.8019 13.1009 39.731 13.0964 39.6601 13.0865C34.1854 12.3246 28.9012 10.6889 23.9529 8.22352C23.2002 7.84792 22.8932 6.93369 23.2688 6.18021C23.6436 5.42673 24.5586 5.12123 25.3121 5.49606C29.964 7.81364 34.9321 9.35259 40.0792 10.068C40.9126 10.1838 41.4947 10.954 41.3789 11.7867C41.2738 12.5494 40.6209 13.1009 39.8719 13.1009Z" fill="#FFE492"/>
</svg>
